{
  "accessors": [
    {
      "bufferView": 2,
      "componentType": 5126,
      "count": 2536,
      "max": [
        1.6484477519989014,
        1.2141320705413818,
        10.855480194091797
      ],
      "min": [
        -1.716515064239502,
        -1.336302638053894,
        0.008253132924437523
      ],
      "type": "VEC3"
    },
    {
      "bufferView": 2,
      "byteOffset": 30432,
      "componentType": 5126,
      "count": 2536,
      "max": [
        0.9998388886451721,
        0.9998154640197754,
        1.0
      ],
      "min": [
        -0.9998388886451721,
        -0.9998154640197754,
        -1.0
      ],
      "type": "VEC3"
    },
    {
      "bufferView": 1,
      "componentType": 5126,
      "count": 2536,
      "max": [
        0.9937630891799927,
        0.9930329322814941
      ],
      "min": [
        0.009558171033859253,
        0.005330413579940796
      ],
      "type": "VEC2"
    },
    {
      "bufferView": 0,
      "componentType": 5125,
      "count": 4884,
      "type": "SCALAR"
    },
    {
      "bufferView": 3,
      "componentType": 5126,
      "count": 32,
      "max": [
        1.0,
        0.0,
        0.0,
        0.0,
        0.0,
        1.0,
        0.0,
        0.0,
        0.0,
        0.0,
        1.0,
        0.0,
        0.0,
        0.0,
        0.0,
        1.0
      ],
      "min": [
        1.0,
        0.0,
        0.0,
        0.0,
        0.0,
        1.0,
        0.0,
        0.0,
        0.0,
        0.0,
        1.0,
        0.0,
        0.0,
        0.0,
        0.0,
        1.0
      ],
      "type": "MAT4"
    }
  ],
  "asset": {
    "extras": {
      "author": "cotrus (https://sketchfab.com/cotrus)",
      "license": "SKETCHFAB Standard (https://sketchfab.com/licenses)",
      "source": "https://sketchfab.com/3d-models/ps1-robot-77e46c970c334e6daae4368b24dc38b2",
      "title": "PS1 | Robot"
    },
    "generator": "Sketchfab-16.21.0",
    "version": "2.0"
  },
  "bufferViews": [
    {
      "buffer": 0,
      "byteLength": 19536,
      "name": "floatBufferViews",
      "target": 34963
    },
    {
      "buffer": 0,
      "byteLength": 20288,
      "byteOffset": 19536,
      "byteStride": 8,
      "name": "floatBufferViews",
      "target": 34962
    },
    {
      "buffer": 0,
      "byteLength": 60864,
      "byteOffset": 39824,
      "byteStride": 12,
      "name": "floatBufferViews",
      "target": 34962
    },
    {
      "buffer": 0,
      "byteLength": 2048,
      "byteOffset": 100688,
      "name": "floatBufferViews"
    }
  ],
  "buffers": [
    {
      "byteLength": 102736,
      "uri": "scene.bin"
    }
  ],
  "extensionsUsed": [
    "KHR_materials_unlit"
  ],
  "images": [
    {
      "uri": "textures/Material_baseColor.png"
    }
  ],
  "materials": [
    {
      "doubleSided": true,
      "extensions": {
        "KHR_materials_unlit": {}
      },
      "name": "Material",
      "pbrMetallicRoughness": {
        "baseColorTexture": {
          "index": 0
        },
        "metallicFactor": 0.0
      }
    }
  ],
  "meshes": [
    {
      "name": "Cube.003_Material_0",
      "primitives": [
        {
          "attributes": {
            "NORMAL": 1,
            "POSITION": 0,
            "TEXCOORD_0": 2
          },
          "indices": 3,
          "material": 0,
          "mode": 4
        }
      ]
    }
  ],
  "nodes": [
    {
      "children": [
        1
      ],
      "matrix": [
        1.0,
        0.0,
        0.0,
        0.0,
        0.0,
        2.220446049250313e-16,
        -1.0,
        0.0,
        0.0,
        1.0,
        2.220446049250313e-16,
        0.0,
        0.0,
        0.0,
        0.0,
        1.0
      ],
      "name": "Sketchfab_model"
    },
    {
      "children": [
        2
      ],
      "matrix": [
        0.009999999776482582,
        0.0,
        0.0,
        0.0,
        0.0,
        0.0,
        0.009999999776482582,
        0.0,
        0.0,
        -0.009999999776482582,
        0.0,
        0.0,
        0.0,
        0.0,
        0.0,
        1.0
      ],
      "name": "0816f9de3951429da93aab61ab50a136.fbx"
    },
    {
      "children": [
        3
      ],
      "name": "RootNode"
    },
    {
      "children": [
        4
      ],
      "matrix": [
        100.0,
        0.0,
        0.0,
        0.0,
        0.0,
        -1.629206793918314e-05,
        -99.99999999999868,
        0.0,
        0.0,
        99.99999999999868,
        -1.629206793918314e-05,
        0.0,
        0.0,
        0.0,
        0.0,
        1.0
      ],
      "name": "Robot_Armature"
    },
    {
      "children": [
        5,
        37
      ],
      "name": "Object_4"
    },
    {
      "children": [
        6,
        11
      ],
      "name": "_rootJoint"
    },
    {
      "children": [
        7,
        8,
        9,
        10
      ],
      "name": "Root_01",
      "rotation": [
        0.7071068286895752,
        0.0,
        0.0,
        0.7071067094802856
      ]
    },
    {
      "name": "Leg_Pole.l_02",
      "rotation": [
        0.7070691585540771,
        -0.007301529869437218,
        -0.007301528938114643,
        0.7070690989494324
      ],
      "translation": [
        1.8476790189743042,
        3.14290189743042,
        2.0001792907714844
      ]
    },
    {
      "name": "Leg_IK.l_03",
      "rotation": [
        0.8046010732650757,
        0.13209392130374908,
        -0.19497205317020416,
        0.5451185703277588
      ],
      "scale": [
        1.0,
        0.9999999403953552,
        0.9999998807907104
      ],
      "translation": [
        0.7516193389892578,
        0.5194504261016846,
        -0.0661550834774971
      ]
    },
    {
      "name": "Leg_Pole.r_04",
      "rotation": [
        0.7070691585540771,
        0.007301529869437218,
        0.007301528938114643,
        0.7070690989494324
      ],
      "translation": [
        -1.6499619483947754,
        3.422910213470459,
        2.1120593547821045
      ]
    },
    {
      "name": "Leg_IK.r_05",
      "rotation": [
        0.8032397627830505,
        -0.13584360480308533,
        0.20050664246082306,
        0.5441961884498596
      ],
      "scale": [
        0.9999999403953552,
        0.9999999403953552,
        0.9999998211860657
      ],
      "translation": [
        -0.7330120205879211,
        0.5194504261016846,
        -0.2690066993236542
      ]
    },
    {
      "children": [
        12,
        13,
        14,
        15,
        16,
        27,
        32
      ],
      "name": "Hips_06",
      "rotation": [
        0.6991991400718689,
        0.10545405745506287,
        0.10545405000448227,
        0.6991991400718689
      ],
      "translation": [
        0.0,
        1.0587911840678754e-22,
        5.051190376281738
      ]
    },
    {
      "name": "Arm_Pole.l_07",
      "rotation": [
        -0.7071068286895752,
        -1.962615208893739e-17,
        -1.9626160360743515e-17,
        0.7071067094802856
      ],
      "translation": [
        2.8532328605651855,
        4.152712821960449,
        -6.021180152893066
      ]
    },
    {
      "name": "Arm_IK.l_08",
      "rotation": [
        0.7039625644683838,
        0.07236924767494202,
        0.7033936977386475,
        0.0666094422340393
      ],
      "scale": [
        0.9999999403953552,
        1.0,
        0.9999999403953552
      ],
      "translation": [
        1.4463285207748413,
        0.26955413818359375,
        -0.3187671899795532
      ]
    },
    {
      "name": "Arm_Pole.r_09",
      "rotation": [
        -0.7071068286895752,
        -1.962615208893739e-17,
        -1.9626160360743515e-17,
        0.7071067094802856
      ],
      "translation": [
        -3.111452102661133,
        4.238968849182129,
        -6.342618942260742
      ]
    },
    {
      "name": "Arm_IK.r_010",
      "rotation": [
        0.7070074677467346,
        -0.01186029426753521,
        -0.7070072293281555,
        -0.011860297992825508
      ],
      "translation": [
        -1.5042864084243774,
        0.29853296279907227,
        -2.682209014892578e-07
      ]
    },
    {
      "children": [
        17
      ],
      "name": "Spine01_011",
      "rotation": [
        0.00892691407352686,
        -4.681129237362116e-17,
        -1.1641997088585043e-10,
        0.99996018409729
      ],
      "scale": [
        1.0,
        0.9999999403953552,
        0.9999999403953552
      ],
      "translation": [
        0.0,
        1.0199780464172363,
        0.0
      ]
    },
    {
      "children": [
        18,
        21,
        24
      ],
      "name": "Spine02_012",
      "rotation": [
        0.025377701967954636,
        0.056685078889131546,
        -0.002454605419188738,
        0.9980664849281311
      ],
      "scale": [
        0.9999999403953552,
        0.9999999403953552,
        1.0
      ],
      "translation": [
        4.656612873077393e-10,
        1.0636014938354492,
        -3.026798367500305e-09
      ]
    },
    {
      "children": [
        19,
        20
      ],
      "name": "Neck_013",
      "rotation": [
        1.1641532182693481e-09,
        -1.490915124691128e-08,
        -1.161407428562633e-10,
        1.0
      ],
      "scale": [
        1.0,
        1.0,
        1.0000001192092896
      ],
      "translation": [
        2.514570951461792e-08,
        1.9999994039535522,
        4.470348358154297e-08
      ]
    },
    {
      "name": "Head_014",
      "rotation": [
        -0.030208632349967957,
        -0.21362414956092834,
        0.0080720791593194,
        0.9764153957366943
      ],
      "scale": [
        1.0,
        1.0000001192092896,
        0.9999999403953552
      ],
      "translation": [
        3.026798367500305e-08,
        0.5790762305259705,
        0.0
      ]
    },
    {
      "name": "Head_LookAt_015",
      "rotation": [
        1.1641532182693481e-09,
        -1.490915124691128e-08,
        -1.161407359173694e-10,
        1.0
      ],
      "scale": [
        1.0,
        1.0,
        1.0000001192092896
      ],
      "translation": [
        -1.8121058940887451,
        0.8200645446777344,
        3.934800624847412
      ]
    },
    {
      "children": [
        22
      ],
      "name": "UpperArm.l_016",
      "rotation": [
        0.5342283844947815,
        -0.00418394710868597,
        0.8247990608215332,
        -0.18517309427261353
      ],
      "scale": [
        1.0000001192092896,
        1.000000238418579,
        1.0000001192092896
      ],
      "translation": [
        0.7154342532157898,
        1.5764944553375244,
        0.004419207572937012
      ]
    },
    {
      "children": [
        23
      ],
      "name": "LowerArm.l_017",
      "rotation": [
        1.8166431345889578e-06,
        2.3749323929678212e-07,
        -0.25980183482170105,
        0.9656620621681213
      ],
      "scale": [
        0.9999998807907104,
        0.9999999403953552,
        0.9999998211860657
      ],
      "translation": [
        -9.96515154838562e-08,
        2.13852596282959,
        1.30385160446167e-07
      ]
    },
    {
      "name": "Hand.l_018",
      "rotation": [
        -0.04515215381979942,
        -0.18450485169887543,
        -0.012203849852085114,
        0.9817180633544922
      ],
      "scale": [
        1.0,
        0.9999999403953552,
        0.9999998211860657
      ],
      "translation": [
        -3.725290298461914e-08,
        1.4628989696502686,
        -7.82310962677002e-08
      ]
    },
    {
      "children": [
        25
      ],
      "name": "UpperArm.r_019",
      "rotation": [
        -0.6187273859977722,
        -0.009626446291804314,
        0.763546347618103,
        0.18460965156555176
      ],
      "scale": [
        1.0,
        1.0000003576278687,
        1.0000001192092896
      ],
      "translation": [
        -0.7154342532157898,
        1.5764944553375244,
        0.004419073462486267
      ]
    },
    {
      "children": [
        26
      ],
      "name": "LowerArm.r_020",
      "rotation": [
        1.992133547901176e-06,
        -2.3402596127652942e-07,
        0.28314754366874695,
        0.9590763449668884
      ],
      "scale": [
        1.0,
        1.0000003576278687,
        0.9999999403953552
      ],
      "translation": [
        4.5634806156158447e-07,
        2.138526201248169,
        -6.556510925292969e-07
      ]
    },
    {
      "name": "Hand.r_021",
      "rotation": [
        -0.062283650040626526,
        0.18969829380512238,
        -0.11925897747278214,
        0.9725803732872009
      ],
      "scale": [
        0.9999997615814209,
        0.9999998807907104,
        0.9999998807907104
      ],
      "translation": [
        -2.086162567138672e-07,
        1.462899088859558,
        2.086162567138672e-07
      ]
    },
    {
      "children": [
        28
      ],
      "name": "UpperLeg.l_022",
      "rotation": [
        0.9798102378845215,
        0.017812110483646393,
        -0.10817380249500275,
        0.16719168424606323
      ],
      "scale": [
        1.000000238418579,
        1.0000003576278687,
        1.0000015497207642
      ],
      "translation": [
        0.5419902801513672,
        8.881784197001252e-16,
        8.959279241345548e-18
      ]
    },
    {
      "children": [
        29
      ],
      "name": "LowerLeg.l_023",
      "rotation": [
        0.26706522703170776,
        0.004922863561660051,
        -0.03153329715132713,
        0.9631498456001282
      ],
      "scale": [
        1.000000238418579,
        1.0,
        1.0000001192092896
      ],
      "translation": [
        4.6566128730773926e-09,
        2.151383638381958,
        1.1920928955078125e-07
      ]
    },
    {
      "children": [
        30,
        31
      ],
      "name": "Foot.l_024",
      "rotation": [
        -0.6420233845710754,
        0.0019633315969258547,
        0.03643903136253357,
        0.7658160924911499
      ],
      "scale": [
        0.9999998807907104,
        0.9999998807907104,
        0.9999998807907104
      ],
      "translation": [
        0.0,
        2.559706449508667,
        -4.842877388000488e-08
      ]
    },
    {
      "name": "Toe02.l_025",
      "rotation": [
        5.198610875112308e-09,
        0.9820170998573303,
        -0.18879210948944092,
        7.58810045908831e-08
      ],
      "scale": [
        0.9999999403953552,
        1.0000001192092896,
        1.0000001192092896
      ],
      "translation": [
        -0.1816466897726059,
        1.0459764003753662,
        -0.03272247314453125
      ]
    },
    {
      "name": "Toe01.l_026",
      "rotation": [
        -9.453184901531131e-09,
        0.9820170998573303,
        -0.18879210948944092,
        7.86978020528295e-08
      ],
      "scale": [
        0.9999999403953552,
        0.9999998211860657,
        1.0000001192092896
      ],
      "translation": [
        0.17002274096012115,
        1.0007792711257935,
        0.0070208460092544556
      ]
    },
    {
      "children": [
        33
      ],
      "name": "UpperLeg.r_027",
      "rotation": [
        0.9238553643226624,
        -0.06313031911849976,
        0.36656609177589417,
        0.09019485116004944
      ],
      "scale": [
        1.0000001192092896,
        1.000000238418579,
        1.0000016689300537
      ],
      "translation": [
        -0.5419902801513672,
        8.881784197001252e-16,
        -4.655187198991228e-17
      ]
    },
    {
      "children": [
        34
      ],
      "name": "LowerLeg.r_028",
      "rotation": [
        0.252778559923172,
        -0.0049427892081439495,
        0.0298464372754097,
        0.967051088809967
      ],
      "scale": [
        0.9999999403953552,
        0.9999997615814209,
        0.9999998807907104
      ],
      "translation": [
        -4.470348358154297e-08,
        2.1513831615448,
        1.4901161193847656e-07
      ]
    },
    {
      "children": [
        35,
        36
      ],
      "name": "Foot.r_00",
      "rotation": [
        -0.6754205226898193,
        0.04175674170255661,
        -0.04082123190164566,
        0.7351170778274536
      ],
      "scale": [
        1.0,
        0.9999998807907104,
        0.9999999403953552
      ],
      "translation": [
        -2.9802322387695313e-08,
        2.559706449508667,
        1.4901161193847656e-08
      ]
    },
    {
      "name": "Toe01.r_029",
      "rotation": [
        -7.633950360741437e-09,
        0.9820170998573303,
        -0.18879209458827972,
        -7.541281377143605e-08
      ],
      "scale": [
        1.0,
        0.9999998807907104,
        1.0000001192092896
      ],
      "translation": [
        -0.17002283036708832,
        1.000779151916504,
        0.007020890712738037
      ]
    },
    {
      "name": "Toe02.r_030",
      "rotation": [
        3.034474338470261e-10,
        0.9820170998573303,
        -0.18879210948944092,
        -7.693877535075444e-08
      ],
      "scale": [
        1.0,
        1.0000001192092896,
        1.0000001192092896
      ],
      "translation": [
        0.18164660036563873,
        1.0459762811660767,
        -0.032722413539886475
      ]
    },
    {
      "children": [
        38
      ],
      "matrix": [
        1.0,
        0.0,
        0.0,
        0.0,
        0.0,
        1.0,
        -2.646977960169688e-23,
        0.0,
        0.0,
        2.646977960169688e-23,
        1.0,
        0.0,
        0.0,
        0.0,
        0.0,
        1.0
      ],
      "name": "Cube.003"
    },
    {
      "mesh": 0,
      "name": "Cube.003_Material_0"
    }
  ],
  "samplers": [
    {
      "magFilter": 9728,
      "minFilter": 9986,
      "wrapS": 10497,
      "wrapT": 10497
    }
  ],
  "scene": 0,
  "scenes": [
    {
      "name": "Sketchfab_Scene",
      "nodes": [
        0
      ]
    }
  ],
  "skins": [
    {
      "inverseBindMatrices": 4,
      "joints": [
        5,
        6,
        7,
        8,
        9,
        10,
        11,
        12,
        13,
        14,
        15,
        16,
        17,
        18,
        19,
        20,
        21,
        22,
        23,
        24,
        25,
        26,
        27,
        28,
        29,
        30,
        31,
        32,
        33,
        34,
        35,
        36
      ],
      "skeleton": 5
    }
  ],
  "textures": [
    {
      "sampler": 0,
      "source": 0
    }
  ]
}
